<?xml version="1.0" encoding="UTF-8" standalone="no"?><svg xmlns="http://www.w3.org/2000/svg" xmlns:xlink="http://www.w3.org/1999/xlink" contentScriptType="application/ecmascript" contentStyleType="text/css" height="240px" preserveAspectRatio="none" style="width:355px;height:240px;" version="1.1" viewBox="0 0 355 240" width="355px" zoomAndPan="magnify"><defs><filter height="300%" id="f8ees9nilqy6j" width="300%" x="-1" y="-1"><feGaussianBlur result="blurOut" stdDeviation="2.0"/><feColorMatrix in="blurOut" result="blurOut2" type="matrix" values="0 0 0 0 0 0 0 0 0 0 0 0 0 0 0 0 0 0 .4 0"/><feOffset dx="4.0" dy="4.0" in="blurOut2" result="blurOut3"/><feBlend in="SourceGraphic" in2="blurOut3" mode="normal"/></filter></defs><g><!--cluster stc--><path d="M100.5,23 C100.5,20 102.5,18 105.5,18 C108.5,18 110.5,20 110.5,23 C110.5,20 112.5,18 115.5,18 C118.5,18 120.5,20 120.5,23 C120.5,20 122.5,18 125.5,18 C128.5,18 130.5,20 130.5,23 C130.5,20 132.5,18 135.5,18 C138.5,18 140.5,20 140.5,23 C140.5,20 142.5,18 145.5,18 C148.5,18 150.5,20 150.5,23 C150.5,20 152.5,18 155.5,18 C158.5,18 160.5,20 160.5,23 C160.5,20 162.5,18 165.5,18 C168.5,18 170.5,20 170.5,23 C170.5,20 172.5,18 175.5,18 C178.5,18 180.5,20 180.5,23 C180.5,20 182.5,18 185.5,18 C188.5,18 190.5,20 190.5,23 C190.5,20 192.5,18 195.5,18 C198.5,18 200.5,20 200.5,23 C200.5,20 202.5,18 205.5,18 C208.5,18 210.5,20 210.5,23 C210.5,20 212.5,18 215.5,18 C218.5,18 220.5,20 220.5,23 C220.5,20 222.5,18 225.5,18 C228.5,18 230.5,20 230.5,23 C230.5,20 232.5,18 235.5,18 C238.5,18 240.5,20 240.5,23 C240.5,20 242.5,18 245.5,18 C248.5,18 250.5,20 250.5,23 C250.5,20 252.5,18 255.5,18 C258.5,18 260.5,20 260.5,23 C260.5,20 262.5,18 265.5,18 C268.5,18 270.5,20 270.5,23 C273.5,23 275.5,25 275.5,28 C275.5,31 273.5,33 270.5,33 C273.5,33 275.5,35 275.5,38 C275.5,41 273.5,43 270.5,43 C273.5,43 275.5,45 275.5,48 C275.5,51 273.5,53 270.5,53 C273.5,53 275.5,55 275.5,58 C275.5,61 273.5,63 270.5,63 C273.5,63 275.5,65 275.5,68 C275.5,71 273.5,73 270.5,73 C273.5,73 275.5,75 275.5,78 C275.5,81 273.5,83 270.5,83 C273.5,83 275.5,85 275.5,88 C275.5,91 273.5,93 270.5,93 C273.5,93 275.5,95 275.5,98 C275.5,101 273.5,103 270.5,103 C273.5,103 275.5,105 275.5,108 C275.5,111 273.5,113 270.5,113 C273.5,113 275.5,115 275.5,118 C275.5,121 273.5,123 270.5,123 C273.5,123 275.5,125 275.5,128 C275.5,131 273.5,133 270.5,133 C273.5,133 275.5,135 275.5,138 C275.5,141 273.5,143 270.5,143 C273.5,143 275.5,145 275.5,148 C275.5,151 273.5,153 270.5,153 C273.5,153 275.5,155 275.5,158 C275.5,161 273.5,163 270.5,163 C273.5,163 275.5,165 275.5,168 C275.5,171 273.5,173 270.5,173 C273.5,173 275.5,175 275.5,178 C275.5,181 273.5,183 270.5,183 C273.5,183 275.5,185 275.5,188 C275.5,191 273.5,193 270.5,193 C273.5,193 275.5,195 275.5,198 C275.5,201 273.5,203 270.5,203 C273.5,203 275.5,205 275.5,208 C275.5,211 273.5,213 270.5,213 C273.5,213 275.5,215 275.5,218 C275.5,221 273.5,223 270.5,223 C270.5,226 267.5,228 265.5,228 C262.5,228 260.5,226 260.5,223 C260.5,226 257.5,228 255.5,228 C252.5,228 250.5,226 250.5,223 C250.5,226 247.5,228 245.5,228 C242.5,228 240.5,226 240.5,223 C240.5,226 237.5,228 235.5,228 C232.5,228 230.5,226 230.5,223 C230.5,226 227.5,228 225.5,228 C222.5,228 220.5,226 220.5,223 C220.5,226 217.5,228 215.5,228 C212.5,228 210.5,226 210.5,223 C210.5,226 207.5,228 205.5,228 C202.5,228 200.5,226 200.5,223 C200.5,226 197.5,228 195.5,228 C192.5,228 190.5,226 190.5,223 C190.5,226 187.5,228 185.5,228 C182.5,228 180.5,226 180.5,223 C180.5,226 177.5,228 175.5,228 C172.5,228 170.5,226 170.5,223 C170.5,226 167.5,228 165.5,228 C162.5,228 160.5,226 160.5,223 C160.5,226 157.5,228 155.5,228 C152.5,228 150.5,226 150.5,223 C150.5,226 147.5,228 145.5,228 C142.5,228 140.5,226 140.5,223 C140.5,226 137.5,228 135.5,228 C132.5,228 130.5,226 130.5,223 C130.5,226 127.5,228 125.5,228 C122.5,228 120.5,226 120.5,223 C120.5,226 117.5,228 115.5,228 C112.5,228 110.5,226 110.5,223 C110.5,226 107.5,228 105.5,228 C102.5,228 100.5,226 100.5,223 C97.5,223 95.5,221 95.5,218 C95.5,215 97.5,213 100.5,213 C97.5,213 95.5,211 95.5,208 C95.5,205 97.5,203 100.5,203 C97.5,203 95.5,201 95.5,198 C95.5,195 97.5,193 100.5,193 C97.5,193 95.5,191 95.5,188 C95.5,185 97.5,183 100.5,183 C97.5,183 95.5,181 95.5,178 C95.5,175 97.5,173 100.5,173 C97.5,173 95.5,171 95.5,168 C95.5,165 97.5,163 100.5,163 C97.5,163 95.5,161 95.5,158 C95.5,155 97.5,153 100.5,153 C97.5,153 95.5,151 95.5,148 C95.5,145 97.5,143 100.5,143 C97.5,143 95.5,141 95.5,138 C95.5,135 97.5,133 100.5,133 C97.5,133 95.5,131 95.5,128 C95.5,125 97.5,123 100.5,123 C97.5,123 95.5,121 95.5,118 C95.5,115 97.5,113 100.5,113 C97.5,113 95.5,111 95.5,108 C95.5,105 97.5,103 100.5,103 C97.5,103 95.5,101 95.5,98 C95.5,95 97.5,93 100.5,93 C97.5,93 95.5,91 95.5,88 C95.5,85 97.5,83 100.5,83 C97.5,83 95.5,81 95.5,78 C95.5,75 97.5,73 100.5,73 C97.5,73 95.5,71 95.5,68 C95.5,65 97.5,63 100.5,63 C97.5,63 95.5,61 95.5,58 C95.5,55 97.5,53 100.5,53 C97.5,53 95.5,51 95.5,48 C95.5,45 97.5,43 100.5,43 C97.5,43 95.5,41 95.5,38 C95.5,35 97.5,33 100.5,33 C97.5,33 95.5,31 95.5,28 C95.5,25 97.5,23 100.5,23 " fill="#FFFFFF" filter="url(#f8ees9nilqy6j)" style="stroke: #000000; stroke-width: 1.5;"/><text fill="#000000" font-family="sans-serif" font-size="14" font-weight="bold" lengthAdjust="spacingAndGlyphs" textLength="99" x="134" y="41.9951">SmartThings</text><text fill="#000000" font-family="sans-serif" font-size="14" font-weight="bold" lengthAdjust="spacingAndGlyphs" textLength="45" x="161" y="58.292">Cloud</text><!--entity dm--><rect fill="#FEFECE" filter="url(#f8ees9nilqy6j)" height="36.2969" style="stroke: #000000; stroke-width: 1.5;" width="53" x="106" y="67.5"/><text fill="#000000" font-family="sans-serif" font-size="14" lengthAdjust="spacingAndGlyphs" textLength="33" x="116" y="90.4951">Core</text><!--entity devcon--><rect fill="#FEFECE" filter="url(#f8ees9nilqy6j)" height="52.5938" style="stroke: #000000; stroke-width: 1.5;" width="67" x="194" y="59"/><text fill="#000000" font-family="sans-serif" font-size="14" lengthAdjust="spacingAndGlyphs" textLength="47" x="204" y="81.9951">Device</text><text fill="#000000" font-family="sans-serif" font-size="14" lengthAdjust="spacingAndGlyphs" textLength="28" x="204" y="98.292">Con</text><!--entity clientcon--><rect fill="#FEFECE" filter="url(#f8ees9nilqy6j)" height="52.5938" style="stroke: #000000; stroke-width: 1.5;" width="59" x="106" y="172"/><text fill="#000000" font-family="sans-serif" font-size="14" lengthAdjust="spacingAndGlyphs" textLength="39" x="116" y="194.9951">Client</text><text fill="#000000" font-family="sans-serif" font-size="14" lengthAdjust="spacingAndGlyphs" textLength="28" x="116" y="211.292">Con</text><!--entity client--><rect fill="#D3D3D3" filter="url(#f8ees9nilqy6j)" height="52.5938" style="stroke: #000000; stroke-width: 1.5;" width="65" x="6" y="59"/><text fill="#000000" font-family="sans-serif" font-size="14" lengthAdjust="spacingAndGlyphs" textLength="45" x="16" y="81.9951">Mobile</text><text fill="#000000" font-family="sans-serif" font-size="14" lengthAdjust="spacingAndGlyphs" textLength="39" x="16" y="98.292">Client</text><!--entity hub--><rect fill="#D3D3D3" filter="url(#f8ees9nilqy6j)" height="36.2969" style="stroke: #000000; stroke-width: 1.5;" width="48" x="296.5" y="67.5"/><text fill="#000000" font-family="sans-serif" font-size="14" lengthAdjust="spacingAndGlyphs" textLength="28" x="306.5" y="90.4951">Hub</text><!--link hub to devcon--><path d="M291.298,85.5 C283.0334,85.5 274.7687,85.5 266.504,85.5 " fill="none" id="hub-devcon" style="stroke: #A80036; stroke-width: 1.0;"/><polygon fill="#A80036" points="261.2852,85.5,270.2852,89.5,266.2852,85.5,270.2852,81.5,261.2852,85.5" style="stroke: #A80036; stroke-width: 1.0;"/><polygon fill="#A80036" points="296.444,85.5,287.444,81.5,291.444,85.5,287.444,89.5,296.444,85.5" style="stroke: #A80036; stroke-width: 1.0;"/><!--link client to dm--><path d="M71.1797,85.5 C80.9706,85.5 90.7615,85.5 100.5524,85.5 " fill="none" id="client-dm" style="stroke: #A80036; stroke-width: 1.0;"/><polygon fill="#A80036" points="105.6724,85.5,96.6724,81.5,100.6724,85.5,96.6724,89.5,105.6724,85.5" style="stroke: #A80036; stroke-width: 1.0;"/><!--link client to clientcon--><path d="M64.8176,116.1587 C79.7807,133.5899 98.3341,155.2037 112.6774,171.9128 " fill="none" id="client-clientcon" style="stroke: #A80036; stroke-width: 1.0;"/><polygon fill="#A80036" points="61.4876,112.2794,64.3145,121.7139,64.7443,116.0734,70.3848,116.5032,61.4876,112.2794" style="stroke: #A80036; stroke-width: 1.0;"/><!--link dm to devcon--><path d="M159.2188,85.5 C169.0611,85.5 178.9035,85.5 188.7459,85.5 " fill="none" id="dm-devcon" style="stroke: #A80036; stroke-width: 1.0;"/><polygon fill="#A80036" points="193.8928,85.5,184.8928,81.5,188.8928,85.5,184.8928,89.5,193.8928,85.5" style="stroke: #A80036; stroke-width: 1.0;"/><!--link dm to clientcon--><path d="M132.982,103.6554 C133.434,120.6794 134.1194,146.4974 134.6611,166.9001 " fill="none" id="dm-clientcon" style="stroke: #A80036; stroke-width: 1.0;"/><polygon fill="#A80036" points="134.7954,171.9619,138.5551,162.8589,134.6627,166.9637,130.5579,163.0712,134.7954,171.9619" style="stroke: #A80036; stroke-width: 1.0;"/><!--
@startuml
  cloud stc as "SmartThings\nCloud" {
    rectangle dm as "Core"
    rectangle devcon as "Device\nCon"
    rectangle clientcon as "Client\nCon"
  }

  rectangle client as "Mobile\nClient" #lightgrey
  rectangle hub as "Hub" #lightgrey

  hub <-right-> devcon
  client -> dm
  clientcon -left-> client

  dm -> devcon
  dm -down-> clientcon

@enduml

PlantUML version 1.2018.13(Mon Nov 26 11:11:51 CST 2018)
(APACHE source distribution)
Java Runtime: OpenJDK Runtime Environment
JVM: OpenJDK 64-Bit Server VM
Java Version: 1.8.0_202-b05
Operating System: Linux
OS Version: 5.1.1-2-MANJARO
Default Encoding: UTF-8
Language: en
Country: US
--></g></svg>