<?xml version="1.0" encoding="UTF-8" standalone="no"?><svg xmlns="http://www.w3.org/2000/svg" xmlns:xlink="http://www.w3.org/1999/xlink" contentScriptType="application/ecmascript" contentStyleType="text/css" height="211px" preserveAspectRatio="none" style="width:218px;height:211px;" version="1.1" viewBox="0 0 218 211" width="218px" zoomAndPan="magnify"><defs><filter height="300%" id="f16xsxunq999fq" width="300%" x="-1" y="-1"><feGaussianBlur result="blurOut" stdDeviation="2.0"/><feColorMatrix in="blurOut" result="blurOut2" type="matrix" values="0 0 0 0 0 0 0 0 0 0 0 0 0 0 0 0 0 0 .4 0"/><feOffset dx="4.0" dy="4.0" in="blurOut2" result="blurOut3"/><feBlend in="SourceGraphic" in2="blurOut3" mode="normal"/></filter></defs><g><!--cluster stc--><path d="M91.5,23.5 C91.5,20.5 93.5,18.5 96.5,18.5 C99.5,18.5 101.5,20.5 101.5,23.5 C101.5,20.5 103.5,18.5 106.5,18.5 C109.5,18.5 111.5,20.5 111.5,23.5 C111.5,20.5 113.5,18.5 116.5,18.5 C119.5,18.5 121.5,20.5 121.5,23.5 C121.5,20.5 123.5,18.5 126.5,18.5 C129.5,18.5 131.5,20.5 131.5,23.5 C131.5,20.5 133.5,18.5 136.5,18.5 C139.5,18.5 141.5,20.5 141.5,23.5 C141.5,20.5 143.5,18.5 146.5,18.5 C149.5,18.5 151.5,20.5 151.5,23.5 C151.5,20.5 153.5,18.5 156.5,18.5 C159.5,18.5 161.5,20.5 161.5,23.5 C161.5,20.5 163.5,18.5 166.5,18.5 C169.5,18.5 171.5,20.5 171.5,23.5 C171.5,20.5 173.5,18.5 176.5,18.5 C179.5,18.5 181.5,20.5 181.5,23.5 C181.5,20.5 183.5,18.5 186.5,18.5 C189.5,18.5 191.5,20.5 191.5,23.5 C191.5,20.5 193.5,18.5 196.5,18.5 C199.5,18.5 201.5,20.5 201.5,23.5 C204.5,23.5 206.5,25.5 206.5,28.5 C206.5,31.5 204.5,33.5 201.5,33.5 C204.5,33.5 206.5,35.5 206.5,38.5 C206.5,41.5 204.5,43.5 201.5,43.5 C204.5,43.5 206.5,45.5 206.5,48.5 C206.5,51.5 204.5,53.5 201.5,53.5 C204.5,53.5 206.5,55.5 206.5,58.5 C206.5,61.5 204.5,63.5 201.5,63.5 C204.5,63.5 206.5,65.5 206.5,68.5 C206.5,71.5 204.5,73.5 201.5,73.5 C204.5,73.5 206.5,75.5 206.5,78.5 C206.5,81.5 204.5,83.5 201.5,83.5 C204.5,83.5 206.5,85.5 206.5,88.5 C206.5,91.5 204.5,93.5 201.5,93.5 C201.5,96.5 198.5,98.5 196.5,98.5 C193.5,98.5 191.5,96.5 191.5,93.5 C191.5,96.5 188.5,98.5 186.5,98.5 C183.5,98.5 181.5,96.5 181.5,93.5 C181.5,96.5 178.5,98.5 176.5,98.5 C173.5,98.5 171.5,96.5 171.5,93.5 C171.5,96.5 168.5,98.5 166.5,98.5 C163.5,98.5 161.5,96.5 161.5,93.5 C161.5,96.5 158.5,98.5 156.5,98.5 C153.5,98.5 151.5,96.5 151.5,93.5 C151.5,96.5 148.5,98.5 146.5,98.5 C143.5,98.5 141.5,96.5 141.5,93.5 C141.5,96.5 138.5,98.5 136.5,98.5 C133.5,98.5 131.5,96.5 131.5,93.5 C131.5,96.5 128.5,98.5 126.5,98.5 C123.5,98.5 121.5,96.5 121.5,93.5 C121.5,96.5 118.5,98.5 116.5,98.5 C113.5,98.5 111.5,96.5 111.5,93.5 C111.5,96.5 108.5,98.5 106.5,98.5 C103.5,98.5 101.5,96.5 101.5,93.5 C101.5,96.5 98.5,98.5 96.5,98.5 C93.5,98.5 91.5,96.5 91.5,93.5 C88.5,93.5 86.5,91.5 86.5,88.5 C86.5,85.5 88.5,83.5 91.5,83.5 C88.5,83.5 86.5,81.5 86.5,78.5 C86.5,75.5 88.5,73.5 91.5,73.5 C88.5,73.5 86.5,71.5 86.5,68.5 C86.5,65.5 88.5,63.5 91.5,63.5 C88.5,63.5 86.5,61.5 86.5,58.5 C86.5,55.5 88.5,53.5 91.5,53.5 C88.5,53.5 86.5,51.5 86.5,48.5 C86.5,45.5 88.5,43.5 91.5,43.5 C88.5,43.5 86.5,41.5 86.5,38.5 C86.5,35.5 88.5,33.5 91.5,33.5 C88.5,33.5 86.5,31.5 86.5,28.5 C86.5,25.5 88.5,23.5 91.5,23.5 " fill="#FFFFFF" filter="url(#f16xsxunq999fq)" style="stroke: #000000; stroke-width: 1.5;"/><text fill="#000000" font-family="sans-serif" font-size="14" font-weight="bold" lengthAdjust="spacingAndGlyphs" textLength="99" x="96.5" y="42.4951">SmartThings</text><text fill="#000000" font-family="sans-serif" font-size="14" font-weight="bold" lengthAdjust="spacingAndGlyphs" textLength="45" x="123.5" y="58.792">Cloud</text><!--entity dm--><rect fill="#FEFECE" filter="url(#f16xsxunq999fq)" height="36.2969" style="stroke: #000000; stroke-width: 1.5;" width="53" x="106" y="59.5"/><text fill="#000000" font-family="sans-serif" font-size="14" lengthAdjust="spacingAndGlyphs" textLength="33" x="116" y="82.4951">Core</text><!--entity client--><rect fill="#D3D3D3" filter="url(#f16xsxunq999fq)" height="52.5938" style="stroke: #000000; stroke-width: 1.5;" width="65" x="6" y="51"/><text fill="#000000" font-family="sans-serif" font-size="14" lengthAdjust="spacingAndGlyphs" textLength="45" x="16" y="73.9951">Mobile</text><text fill="#000000" font-family="sans-serif" font-size="14" lengthAdjust="spacingAndGlyphs" textLength="39" x="16" y="90.292">Client</text><!--entity hub--><rect fill="#D3D3D3" filter="url(#f16xsxunq999fq)" height="36.2969" style="stroke: #000000; stroke-width: 1.5;" width="48" x="108.5" y="164"/><text fill="#000000" font-family="sans-serif" font-size="14" lengthAdjust="spacingAndGlyphs" textLength="28" x="118.5" y="186.9951">Hub</text><!--link dm to hub--><path d="M132.5,100.841 C132.5,119.8044 132.5,146.1819 132.5,163.6555 " fill="none" id="dm-hub" style="stroke: #A80036; stroke-width: 1.0;"/><polygon fill="#A80036" points="132.5,95.7025,128.5,104.7025,132.5,100.7025,136.5,104.7025,132.5,95.7025" style="stroke: #A80036; stroke-width: 1.0;"/><!--link client to dm--><path d="M71.1797,77.5 C80.9706,77.5 90.7615,77.5 100.5524,77.5 " fill="none" id="client-dm" style="stroke: #A80036; stroke-width: 1.0;"/><polygon fill="#A80036" points="105.6724,77.5,96.6724,73.5,100.6724,77.5,96.6724,81.5,105.6724,77.5" style="stroke: #A80036; stroke-width: 1.0;"/><!--
@startuml

  cloud stc as "SmartThings\nCloud" {
    rectangle dm as "Core"
  }

  rectangle client as "Mobile\nClient" #lightgrey
  rectangle hub as "Hub" #lightgrey

  hub -up-> dm
  client -> dm

@enduml

PlantUML version 1.2018.13(Mon Nov 26 11:11:51 CST 2018)
(APACHE source distribution)
Java Runtime: OpenJDK Runtime Environment
JVM: OpenJDK 64-Bit Server VM
Java Version: 1.8.0_202-b05
Operating System: Linux
OS Version: 5.1.1-2-MANJARO
Default Encoding: UTF-8
Language: en
Country: US
--></g></svg>